<svg width="19" height="18" viewBox="0 0 19 18" fill="none" xmlns="http://www.w3.org/2000/svg">
<path fill-rule="evenodd" clip-rule="evenodd" d="M9.5714 15.6857C13.4216 15.6857 16.5428 12.5645 16.5428 8.71429C16.5428 4.86407 13.4216 1.74286 9.5714 1.74286C5.72119 1.74286 2.59998 4.86407 2.59998 8.71429C2.59998 12.5645 5.72119 15.6857 9.5714 15.6857ZM12.9321 7.13799C13.1444 6.84607 13.0799 6.43731 12.788 6.22501C12.496 6.0127 12.0873 6.07724 11.875 6.36916L8.83914 10.5434L7.20141 8.90571C6.94617 8.65048 6.53235 8.65048 6.27712 8.90571C6.02188 9.16095 6.02188 9.57477 6.27712 9.83L8.45569 12.0086C8.59085 12.1437 8.7784 12.213 8.96896 12.198C9.15951 12.183 9.33397 12.0854 9.4464 11.9308L12.9321 7.13799Z" fill="url(#paint0_linear_1822_8204)"/>
<defs>
<linearGradient id="paint0_linear_1822_8204" x1="19.383" y1="17.7513" x2="2.12069" y2="-0.114063" gradientUnits="userSpaceOnUse">
<stop offset="0.245343" stop-color="#EFB31A"/>
<stop offset="0.444137" stop-color="#F9E7B7"/>
<stop offset="0.603908" stop-color="#FBC437"/>
<stop offset="0.765543" stop-color="#FAE09E"/>
</linearGradient>
</defs>
</svg>
