<svg width="24" height="25" viewBox="0 0 24 25" fill="none" xmlns="http://www.w3.org/2000/svg">
<path fill-rule="evenodd" clip-rule="evenodd" d="M10.5968 3.08075L9.09011 4.58611C8.96749 4.70638 8.80318 4.77469 8.63143 4.77679H6.26071C5.16468 4.77679 4.27666 5.66481 4.27666 6.76083V9.13155C4.27491 9.30376 4.20658 9.46861 4.08599 9.59156L2.57929 11.0969C2.208 11.4693 1.99951 11.9738 1.99951 12.4996C1.99951 13.0255 2.208 13.5299 2.57929 13.9023L4.08599 15.409C4.20626 15.5317 4.27456 15.696 4.27666 15.8677V18.2384C4.27666 19.3345 5.16468 20.2225 6.26071 20.2225H8.63143C8.80364 20.2242 8.96849 20.2926 9.09144 20.4132L10.5968 21.9199C10.9692 22.2911 11.4736 22.4996 11.9995 22.4996C12.5254 22.4996 13.0298 22.2911 13.4022 21.9199L14.9089 20.4132C15.0315 20.2929 15.1958 20.2246 15.3676 20.2225H17.7383C18.8343 20.2225 19.7224 19.3345 19.7224 18.2384V15.8677C19.7241 15.6955 19.7924 15.5307 19.913 15.4077L21.4197 13.9023C21.791 13.5299 21.9995 13.0255 21.9995 12.4996C21.9995 11.9738 21.791 11.4693 21.4197 11.0969L19.913 9.59023C19.7928 9.46761 19.7245 9.3033 19.7224 9.13155V6.76083C19.7224 5.66481 18.8343 4.77679 17.7383 4.77679H15.3676C15.1954 4.77503 15.0305 4.7067 14.9076 4.58611L13.4022 3.07941C13.0298 2.70813 12.5254 2.49963 11.9995 2.49963C11.4736 2.49963 10.9692 2.70946 10.5968 3.08075ZM8.19409 15.3597L14.8609 8.69288L15.8049 9.6369L9.13811 16.3037L8.19409 15.3597ZM8.6661 9.16622V10.4996H9.99946V9.16622H8.6661ZM13.9996 15.833H15.3329V14.4997H13.9996V15.833Z" fill="#60666C"/>
</svg>
