<svg width="32" height="32" viewBox="0 0 32 32" fill="none" xmlns="http://www.w3.org/2000/svg">
<path fill-rule="evenodd" clip-rule="evenodd" d="M24.9138 25.4628C27.4295 23.0922 29 19.7295 29 16C29 8.8203 23.1797 3 16 3C8.8203 3 3 8.8203 3 16C3 19.7295 4.57047 23.0922 7.08617 25.4628C9.41349 27.6559 12.5498 29 16 29C19.4502 29 22.5865 27.6559 24.9138 25.4628ZM8.1935 23.7497C10.0262 21.4637 12.8421 20 16 20C19.1579 20 21.9738 21.4637 23.8065 23.7497C21.8137 25.757 19.052 27 16 27C12.948 27 10.1863 25.757 8.1935 23.7497ZM21 12C21 14.7614 18.7614 17 16 17C13.2386 17 11 14.7614 11 12C11 9.23858 13.2386 7 16 7C18.7614 7 21 9.23858 21 12Z" fill="#503829"/>
</svg>
