<svg width="40" height="40" viewBox="0 0 40 40" fill="none" xmlns="http://www.w3.org/2000/svg">
<g clip-path="url(#clip0_1822_8154)">
<path fill-rule="evenodd" clip-rule="evenodd" d="M17.1942 1.1622L14.1809 4.17286C13.9356 4.4134 13.607 4.55 13.2635 4.5542H8.5222C6.3302 4.5542 4.5542 6.3302 4.5542 8.5222V13.2635C4.55068 13.6079 4.41403 13.9376 4.17286 14.1835L1.15953 17.1942C0.416975 17.939 0 18.9478 0 19.9995C0 21.0512 0.416975 22.0601 1.15953 22.8049L4.17286 25.8182C4.4134 26.0634 4.55 26.392 4.5542 26.7355V31.4769C4.5542 33.6689 6.3302 35.4449 8.5222 35.4449H13.2635C13.6079 35.4484 13.9376 35.585 14.1835 35.8262L17.1942 38.8395C17.939 39.5821 18.9478 39.9991 19.9995 39.9991C21.0512 39.9991 22.0601 39.5821 22.8049 38.8395L25.8182 35.8262C26.0634 35.5857 26.392 35.4491 26.7355 35.4449H31.4769C33.6689 35.4449 35.4449 33.6689 35.4449 31.4769V26.7355C35.4484 26.3911 35.585 26.0614 35.8262 25.8155L38.8395 22.8049C39.5821 22.0601 39.9991 21.0512 39.9991 19.9995C39.9991 18.9478 39.5821 17.939 38.8395 17.1942L35.8262 14.1809C35.5857 13.9356 35.4491 13.607 35.4449 13.2635V8.5222C35.4449 6.3302 33.6689 4.5542 31.4769 4.5542H26.7355C26.3911 4.55068 26.0614 4.41403 25.8155 4.17286L22.8049 1.15953C22.0601 0.416975 21.0512 0 19.9995 0C18.9478 0 17.939 0.419642 17.1942 1.1622ZM12.3889 25.7195L25.7222 12.3862L27.6102 14.2742L14.2769 27.6075L12.3889 25.7195ZM13.3329 13.3329V15.9995H15.9995V13.3329H13.3329ZM23.9995 26.6662H26.6662V23.9995H23.9995V26.6662Z" fill="url(#paint0_linear_1822_8154)"/>
</g>
<defs>
<linearGradient id="paint0_linear_1822_8154" x1="48.147" y1="45.9248" x2="-1.37497" y2="-5.32711" gradientUnits="userSpaceOnUse">
<stop offset="0.245343" stop-color="#EFB31A"/>
<stop offset="0.444137" stop-color="#F9E7B7"/>
<stop offset="0.603908" stop-color="#FBC437"/>
<stop offset="0.765543" stop-color="#FAE09E"/>
</linearGradient>
<clipPath id="clip0_1822_8154">
<rect width="40" height="40" fill="white"/>
</clipPath>
</defs>
</svg>
